<svg xmlns="http://www.w3.org/2000/svg" width="1200" height="680" viewBox="0 0 1200 680" role="img" aria-labelledby="title desc">
  <title id="title">GrantFlow Demo Console overview placeholder</title>
  <desc id="desc">Stylized overview of the demo console layout with panels for generate, HITL, critic, metrics, versions, comments, and portfolio metrics.</desc>
  <defs>
    <linearGradient id="bg" x1="0" x2="1" y1="0" y2="1">
      <stop offset="0%" stop-color="#f4f0e8"/>
      <stop offset="100%" stop-color="#efe9dd"/>
    </linearGradient>
    <linearGradient id="card" x1="0" x2="0" y1="0" y2="1">
      <stop offset="0%" stop-color="#fffaf1"/>
      <stop offset="100%" stop-color="#f8f2e6"/>
    </linearGradient>
    <style>
      .label { font: 700 14px ui-sans-serif, system-ui, sans-serif; fill: #2b2620; letter-spacing: 0.04em; }
      .sub { font: 12px ui-sans-serif, system-ui, sans-serif; fill: #6d665d; }
      .mono { font: 12px ui-monospace, SFMono-Regular, Menlo, monospace; fill: #1f2329; }
      .pill { font: 700 11px ui-sans-serif, system-ui, sans-serif; fill: #fff; }
    </style>
  </defs>

  <rect x="0" y="0" width="1200" height="680" fill="url(#bg)"/>

  <rect x="22" y="18" width="1156" height="78" rx="16" fill="#fffaf1" stroke="#d8cfbf"/>
  <text x="42" y="48" class="label" font-size="20">GrantFlow Demo Console</text>
  <text x="42" y="70" class="sub">Generate → HITL → Critic → Diff → Comments → Metrics → Portfolio dashboard</text>

  <rect x="22" y="110" width="1156" height="52" rx="14" fill="#fffaf1" stroke="#d8cfbf"/>
  <rect x="40" y="125" width="210" height="22" rx="8" fill="#ffffff" stroke="#d8cfbf"/>
  <rect x="266" y="125" width="190" height="22" rx="8" fill="#ffffff" stroke="#d8cfbf"/>
  <rect x="472" y="125" width="220" height="22" rx="8" fill="#ffffff" stroke="#d8cfbf"/>
  <rect x="708" y="125" width="120" height="22" rx="8" fill="#ffffff" stroke="#d8cfbf"/>
  <rect x="846" y="122" width="120" height="28" rx="10" fill="#ffffff" stroke="#d8cfbf"/>
  <rect x="980" y="122" width="150" height="28" rx="10" fill="#0f766e" stroke="#0f766e"/>
  <text x="49" y="140" class="sub">API Base</text>
  <text x="275" y="140" class="sub">X-API-Key</text>
  <text x="481" y="140" class="sub">Job ID</text>
  <text x="717" y="140" class="sub">Diff section</text>
  <text x="872" y="141" class="sub">Refresh All</text>
  <text x="1009" y="141" class="pill">Start Poll</text>

  <!-- Left column -->
  <g transform="translate(22,178)">
    <rect width="560" height="484" rx="16" fill="none"/>

    <rect x="0" y="0" width="560" height="148" rx="14" fill="url(#card)" stroke="#d8cfbf"/>
    <text x="16" y="24" class="label">Generate</text>
    <rect x="16" y="36" width="126" height="22" rx="8" fill="#fff" stroke="#d8cfbf"/>
    <rect x="150" y="36" width="126" height="22" rx="8" fill="#fff" stroke="#d8cfbf"/>
    <rect x="284" y="36" width="126" height="22" rx="8" fill="#fff" stroke="#d8cfbf"/>
    <rect x="418" y="36" width="126" height="22" rx="8" fill="#fff" stroke="#d8cfbf"/>
    <rect x="16" y="68" width="170" height="22" rx="8" fill="#fff" stroke="#d8cfbf"/>
    <rect x="194" y="68" width="170" height="22" rx="8" fill="#fff" stroke="#d8cfbf"/>
    <rect x="372" y="68" width="172" height="22" rx="8" fill="#fff" stroke="#d8cfbf"/>
    <rect x="16" y="102" width="528" height="30" rx="10" fill="#0f766e" stroke="#0f766e"/>
    <text x="234" y="122" class="pill">Generate Draft</text>

    <rect x="0" y="160" width="560" height="156" rx="14" fill="url(#card)" stroke="#d8cfbf"/>
    <text x="16" y="184" class="label">HITL Actions</text>
    <rect x="16" y="198" width="172" height="26" rx="9" fill="#fff" stroke="#d8cfbf"/>
    <circle cx="32" cy="211" r="4" fill="#2563eb"/>
    <text x="42" y="215" class="sub">status: pending_hitl</text>
    <rect x="196" y="198" width="172" height="26" rx="9" fill="#fff" stroke="#d8cfbf"/>
    <rect x="376" y="198" width="168" height="26" rx="9" fill="#fff" stroke="#d8cfbf"/>
    <rect x="16" y="232" width="528" height="48" rx="10" fill="#fff" stroke="#d8cfbf"/>
    <rect x="16" y="288" width="170" height="28" rx="10" fill="#0f766e" stroke="#0f766e"/>
    <rect x="194" y="288" width="170" height="28" rx="10" fill="#b91c1c" stroke="#b91c1c"/>
    <rect x="372" y="288" width="172" height="28" rx="10" fill="#b45309" stroke="#b45309"/>
    <text x="66" y="307" class="pill">Approve</text>
    <text x="246" y="307" class="pill">Reject</text>
    <text x="438" y="307" class="pill">Resume</text>

    <rect x="0" y="328" width="560" height="156" rx="14" fill="url(#card)" stroke="#d8cfbf"/>
    <text x="16" y="352" class="label">Status Snapshot</text>
    <rect x="16" y="362" width="528" height="106" rx="10" fill="#1f2329"/>
    <text x="28" y="384" class="mono" fill="#e5e7eb">{"status":"done","job_id":"...","state":{...}}</text>
  </g>

  <!-- Right column -->
  <g transform="translate(598,178)">
    <rect x="0" y="0" width="580" height="94" rx="14" fill="url(#card)" stroke="#d8cfbf"/>
    <text x="16" y="24" class="label">Metrics</text>
    <rect x="16" y="36" width="84" height="22" rx="8" fill="#fff" stroke="#d8cfbf"/>
    <rect x="108" y="36" width="84" height="22" rx="8" fill="#fff" stroke="#d8cfbf"/>
    <rect x="200" y="36" width="84" height="22" rx="8" fill="#fff" stroke="#d8cfbf"/>
    <rect x="292" y="36" width="84" height="22" rx="8" fill="#fff" stroke="#d8cfbf"/>
    <rect x="384" y="36" width="84" height="22" rx="8" fill="#fff" stroke="#d8cfbf"/>
    <rect x="476" y="36" width="88" height="22" rx="8" fill="#fff" stroke="#d8cfbf"/>

    <rect x="0" y="106" width="580" height="148" rx="14" fill="url(#card)" stroke="#d8cfbf"/>
    <text x="16" y="130" class="label">Portfolio Metrics</text>
    <rect x="16" y="142" width="176" height="22" rx="8" fill="#fff" stroke="#d8cfbf"/>
    <rect x="200" y="142" width="176" height="22" rx="8" fill="#fff" stroke="#d8cfbf"/>
    <rect x="384" y="142" width="180" height="22" rx="8" fill="#fff" stroke="#d8cfbf"/>
    <rect x="16" y="172" width="200" height="28" rx="10" fill="#fff" stroke="#d8cfbf"/>
    <rect x="224" y="172" width="160" height="28" rx="10" fill="#fff" stroke="#d8cfbf"/>
    <text x="30" y="190" class="sub">Load Portfolio Metrics</text>
    <text x="238" y="190" class="sub">Clear Portfolio Filters</text>
    <rect x="16" y="208" width="268" height="30" rx="10" fill="#fff" stroke="#d8cfbf"/>
    <rect x="296" y="208" width="268" height="30" rx="10" fill="#fff" stroke="#d8cfbf"/>
    <text x="28" y="227" class="sub">Status Counts (click to filter)</text>
    <text x="308" y="227" class="sub">Top Donors (click to filter)</text>

    <rect x="0" y="266" width="580" height="164" rx="14" fill="url(#card)" stroke="#d8cfbf"/>
    <text x="16" y="290" class="label">Critic Findings</text>
    <rect x="16" y="302" width="176" height="22" rx="8" fill="#fff" stroke="#d8cfbf"/>
    <rect x="200" y="302" width="176" height="22" rx="8" fill="#fff" stroke="#d8cfbf"/>
    <rect x="384" y="302" width="180" height="22" rx="8" fill="#fff" stroke="#d8cfbf"/>
    <rect x="16" y="332" width="176" height="82" rx="10" fill="#fff" stroke="#d8cfbf"/>
    <rect x="200" y="332" width="176" height="82" rx="10" fill="#fff" stroke="#d8cfbf"/>
    <rect x="384" y="332" width="180" height="82" rx="10" fill="#fff" stroke="#d8cfbf"/>
    <text x="28" y="350" class="sub">Fatal flaws</text>
    <text x="212" y="350" class="sub">Rule checks</text>
    <text x="396" y="350" class="sub">Citation context</text>
    <rect x="28" y="358" width="152" height="18" rx="6" fill="#fff2f2" stroke="#fca5a5"/>
    <text x="34" y="370" class="sub">high · toc · TOC_SCHEMA_INVALID</text>
    <rect x="28" y="382" width="92" height="20" rx="8" fill="#fff" stroke="#d8cfbf"/>
    <rect x="126" y="382" width="92" height="20" rx="8" fill="#fff" stroke="#d8cfbf"/>
    <text x="42" y="395" class="sub">Comment</text>
    <text x="142" y="395" class="sub">Diff</text>

    <rect x="0" y="442" width="580" height="220" rx="14" fill="url(#card)" stroke="#d8cfbf"/>
    <text x="16" y="466" class="label">Versions / Diff / Comments / Events</text>
    <rect x="16" y="478" width="176" height="20" rx="8" fill="#fff" stroke="#d8cfbf"/>
    <rect x="200" y="478" width="176" height="20" rx="8" fill="#fff" stroke="#d8cfbf"/>
    <rect x="384" y="478" width="180" height="20" rx="8" fill="#fff" stroke="#d8cfbf"/>
    <rect x="16" y="506" width="268" height="140" rx="10" fill="#fff" stroke="#d8cfbf"/>
    <rect x="296" y="506" width="268" height="140" rx="10" fill="#1f2329"/>
    <text x="28" y="526" class="sub">Review comments list + filters</text>
    <text x="308" y="526" class="mono" fill="#e5e7eb">Unified diff view / raw JSON</text>
  </g>
</svg>
